<svg width="160" height="40" xmlns="http://www.w3.org/2000/svg" preserveAspectRatio="none" version="1.1">

 <g>
  <title>background</title>
  <rect fill="none" id="canvas_background" height="42" width="162" y="-1" x="-1"/>
 </g>
 <g>
  <title>Layer 1</title>
  <g id="rectBox">
   <rect id="rect_shape_7IxrJPaRFD" width="18.895942" height="25.411328" transform="translate(202.03086853027344,180.35293579101562) scale(1) " fill="none" stroke="rgba(0,0,0,0)" class="box_trans" y="92" x="77"/>
   <rect id="rect_shape_VHxwG5SaUj" width="110.120833" height="18.49734" transform="translate(222.02188110351562,183.8099822998047) scale(1) " fill="none" stroke="rgba(0,0,0,0)" class="box_trans" y="92" x="77"/>
  </g>
  <g id="svg_33">
   <g id="shape_7IxrJPaRFD" transform="translate(202.03086853027344,180.35293579101562) scale(1) ">
    <g id="svg_4">
     <rect fill="rgba(0,0,0,0)" width="38.895942" height="45.411328" x="-206.734681" y="-183.058598" id="svg_5"/>
     <svg version="1.1" id="svg_2" x="-196.734681" y="-173.058598" width="18.895942" height="25.411328" viewBox="26.799999237060547 3 142.39999389648438 191.5" xml:space="preserve" preserveAspectRatio="none" data-parent="shape_7IxrJPaRFD" xmlns="http://www.w3.org/2000/svg" xmlns:xlink="http://www.w3.org/1999/xlink">
      <style type="text/css">.st0{fill:#7DF4D3;}
	.st1{fill:#2AD4C8;}
	.st2{fill:#139EEF;}</style>
      <g id="svg_3">
       <polygon points="133.6,146.6 169.2,98.7 98,98.7  " fill="#7DF4D3" id="svg_39"/>
       <polygon points="133.6,50.9 98,98.8 169.2,98.8  " fill="#2AD4C8" id="svg_38"/>
       <polygon points="62.4,146.6 98,98.7 26.8,98.7  " fill="#139EEF" id="svg_37"/>
       <polygon points="98,98.7 62.4,146.6 133.6,146.6  " fill="#2AD4C8" id="svg_36"/>
       <polygon points="98,194.5 133.6,146.6 62.4,146.6  " fill="#7DF4D3" id="svg_35"/>
       <polygon points="133.6,146.6 98,194.5 169.2,194.5  " fill="#139EEF" id="svg_34"/>
       <polygon points="133.6,50.9 169.2,3 98,3  " fill="#7DF4D3" id="svg_32"/>
       <polygon points="98,3 62.4,50.9 133.6,50.9  " fill="#139EEF" id="svg_31"/>
       <polygon points="98,98.8 133.6,50.9 62.4,50.9  " fill="#7DF4D3" id="svg_16"/>
       <polygon points="62.4,50.9 26.8,98.8 98,98.8  " fill="#2AD4C8" id="svg_6"/>
      </g>
     </svg>
    </g>
   </g>
   <g id="shape_VHxwG5SaUj" transform="translate(206.52850341796875,168.31661987304688) scale(1) ">
    <svg version="1.1" width="141.107578" height="49.484085" viewBox="0 0 1144.28 401.28" data-parent="shape_VHxwG5SaUj" id="svg_41" x="-179.438899" y="-173.35438" xmlns="http://www.w3.org/2000/svg" xmlns:xlink="http://www.w3.org/1999/xlink">
     <rect fill="rgba(0,0,0,0)" width="893" height="150" x="125.64" y="125.64" id="svg_54"/>
     <g data-width="892.6722" id="svg_42">
      <path d="m50.26,245.64l-42.09,0l0,-14.95l38.32,0q9.17,0 12.18,-1.76l0,0q4.4,-2.64 4.4,-7.92l0,0q0,-6.15 -5.15,-8.92l0,0q-2.89,-1.63 -9.3,-1.63l0,0l-15.58,0q-14.19,0 -20.48,-5.15l0,0q-3.89,-3.27 -6.09,-8.17q-2.2,-4.9 -2.2,-10.55l0,0q0,-8.8 5.15,-16.08l0,0q5.03,-7.04 16.08,-8.29l0,0q3.77,-0.38 11.19,-0.38l0,0l41.58,0l0,14.95l-37.56,0q-8.42,0.12 -11.18,0.75l0,0q-5.66,1.39 -5.66,8.55l0,0q0,6.03 4.78,8.04l0,0q3.14,1.51 10.55,1.51l0,0l13.44,0q10.31,0 15.33,1.75l0,0q8.92,3.02 12.31,10.56l0,0q2.64,6.03 2.64,12.94l0,0q0,7.66 -3.52,13.69l0,0q-4.9,8.55 -14.7,10.31l0,0q-4.77,0.75 -14.44,0.75l0,0z" fill="rgb(114, 113, 113)" stroke="rgb(114, 113, 113)" stroke-linecap="square" stroke-linejoin="square" stroke-width="0.209" data-glyph-w="87.3198" data-glyph-h="125.64" data-glyph-ascender="107.92476" data-glyph-descender="-17.71524" id="svg_53"/>
      <path d="m94.8598,161.84l17.71,0l0,50.25q0,6.03 1.01,9.36q1,3.33 3.39,5.72l0,0q5.28,5.15 14.7,5.15l0,0q6.03,0 10.49,-2.07q4.46,-2.07 6.22,-5.59l0,0q1.76,-3.52 1.76,-12.57l0,0l0,-50.25l17.84,0l0,49.37q0,9.8 -2.07,16.15q-2.08,6.34 -6.35,10.24l0,0q-9.92,8.67 -28.14,8.67l0,0q-19.47,0 -28.39,-8.55l0,0q-4.65,-4.39 -6.41,-9.86q-1.76,-5.46 -1.76,-15.39l0,0l0,-50.63z" fill="rgb(114, 113, 113)" stroke="rgb(114, 113, 113)" stroke-linecap="square" stroke-linejoin="square" stroke-width="0.209" data-glyph-w="88.32492" data-glyph-h="125.64" data-glyph-ascender="107.92476" data-glyph-descender="-17.71524" id="svg_52"/>
      <path d="m230.67471,216.37l-28.65,0l0,29.27l-17.84,0l0,-83.8l41.84,0q11.43,0 16.33,1.63l0,0q8.3,2.77 13.07,11.43l0,0q3.52,6.54 3.52,14.2l0,0q0,6.41 -2.33,12.13q-2.32,5.71 -6.47,9.36l0,0q-3.76,3.26 -7.97,4.52q-4.21,1.26 -11.5,1.26l0,0zm-28.65,-39.58l0,24.62l24.25,0q6.54,0 9.17,-2.01l0,0q3.9,-3.14 3.9,-10.93l0,0q0,-8.41 -5.91,-10.8l0,0q-2.13,-0.88 -6.78,-0.88l0,0l-24.63,0z" fill="rgb(114, 113, 113)" stroke="rgb(114, 113, 113)" stroke-linecap="square" stroke-linejoin="square" stroke-width="0.209" data-glyph-w="86.0634" data-glyph-h="125.64" data-glyph-ascender="107.92476" data-glyph-descender="-17.71524" id="svg_51"/>
      <path d="m303.04813,161.84l30.02,0l0,14.95l-23.24,0q-9.05,0 -13.19,1.26q-4.15,1.25 -6.91,4.9l0,0q-1.89,2.51 -2.58,5.02q-0.69,2.51 -1.19,8.54l0,0l47.11,0l0,14.96l-47.11,0q1,10.8 6.41,15.01q5.4,4.21 18.34,4.21l0,0l22.36,0l0,14.95l-23.24,0q-9.42,0 -16.58,-1.13l0,0q-11.31,-1.89 -17.97,-9.93l0,0q-9.55,-11.56 -9.55,-31.28l0,0q0,-21.86 13.44,-34.05l0,0q4.65,-4.15 9.87,-5.78q5.21,-1.63 14.01,-1.63l0,0z" fill="rgb(114, 113, 113)" stroke="rgb(114, 113, 113)" stroke-linecap="square" stroke-linejoin="square" stroke-width="0.209" data-glyph-w="76.89168" data-glyph-h="125.64" data-glyph-ascender="107.92476" data-glyph-descender="-17.71524" id="svg_50"/>
      <path d="m379.30979,213.85l-14.33,0l0,31.79l-17.84,0l0,-83.8l40.96,0q17.59,0 24.5,4.52l0,0q4.78,3.02 7.35,7.98q2.58,4.96 2.58,10.87l0,0q0,11.93 -6.03,18.47l0,0q-3.77,3.89 -9.93,5.9l0,0q4.9,1.76 7.41,3.71q2.52,1.95 4.53,5.71l0,0q1.5,3.02 2.2,5.78q0.69,2.77 1.06,8.17l0,0q0.76,9.05 2.01,12.69l0,0l-19.97,0q-0.88,-2.89 -1.89,-11.94l0,0q-0.63,-7.28 -2.57,-11.18q-1.95,-3.89 -5.85,-6.15l0,0q-4.9,-2.64 -14.19,-2.52l0,0zm-14.33,-37.06l0,22.11l25.01,0q6.28,0 8.92,-1.88l0,0q4.02,-2.77 4.02,-9.68l0,0q0,-7.66 -6.03,-9.8l0,0q-2.14,-0.75 -6.91,-0.75l0,0l-25.01,0z" fill="rgb(114, 113, 113)" stroke="rgb(114, 113, 113)" stroke-linecap="square" stroke-linejoin="square" stroke-width="0.209" data-glyph-w="89.70696" data-glyph-h="125.64" data-glyph-ascender="107.92476" data-glyph-descender="-17.71524" id="svg_49"/>
      <path fill="rgb(114, 113, 113)" stroke="rgb(114, 113, 113)" stroke-linecap="square" stroke-linejoin="square" stroke-width="0.209" data-glyph-w="50.00472" data-glyph-h="125.64" data-glyph-ascender="110.5632" data-glyph-descender="-15.0768" id="svg_48"/>
      <path d="m658.98149,216.37l-28.65,0l0,29.27l-17.84,0l0,-83.8l41.84,0q11.43,0 16.33,1.63l0,0q8.3,2.77 13.07,11.43l0,0q3.52,6.54 3.52,14.2l0,0q0,6.41 -2.33,12.13q-2.32,5.71 -6.47,9.36l0,0q-3.76,3.26 -7.97,4.52q-4.21,1.26 -11.5,1.26l0,0zm-28.65,-39.58l0,24.62l24.25,0q6.54,0 9.17,-2.01l0,0q3.9,-3.14 3.9,-10.93l0,0q0,-8.41 -5.91,-10.8l0,0q-2.13,-0.88 -6.78,-0.88l0,0l-24.63,0z" fill="rgb(114, 113, 113)" stroke="rgb(114, 113, 113)" stroke-linecap="square" stroke-linejoin="square" stroke-width="0.209" data-glyph-w="86.0634" data-glyph-h="125.64" data-glyph-ascender="107.92476" data-glyph-descender="-17.71524" id="svg_47"/>
      <path d="m711.24488,245.64l-20.85,0l34.67,-83.8l20.48,0l34.68,83.8l-20.86,0l-8.16,-19.35l-31.79,0l-8.17,19.35zm36.06,-34.3l-11.93,-29.27l-11.94,29.27l23.87,0z" fill="rgb(114, 113, 113)" stroke="rgb(114, 113, 113)" stroke-linecap="square" stroke-linejoin="square" stroke-width="0.209" data-glyph-w="90.71208" data-glyph-h="125.64" data-glyph-ascender="107.92476" data-glyph-descender="-17.71524" id="svg_46"/>
      <path d="m830.98697,245.64l-42.09,0l0,-14.95l38.32,0q9.17,0 12.18,-1.76l0,0q4.4,-2.64 4.4,-7.92l0,0q0,-6.15 -5.15,-8.92l0,0q-2.89,-1.63 -9.3,-1.63l0,0l-15.58,0q-14.19,0 -20.48,-5.15l0,0q-3.89,-3.27 -6.09,-8.17q-2.2,-4.9 -2.2,-10.55l0,0q0,-8.8 5.15,-16.08l0,0q5.03,-7.04 16.08,-8.29l0,0q3.77,-0.38 11.19,-0.38l0,0l41.58,0l0,14.95l-37.56,0q-8.42,0.12 -11.18,0.75l0,0q-5.66,1.39 -5.66,8.55l0,0q0,6.03 4.78,8.04l0,0q3.14,1.51 10.55,1.51l0,0l13.44,0q10.31,0 15.33,1.75l0,0q8.92,3.02 12.31,10.56l0,0q2.64,6.03 2.64,12.94l0,0q0,7.66 -3.52,13.69l0,0q-4.9,8.55 -14.7,10.31l0,0q-4.77,0.75 -14.44,0.75l0,0z" fill="rgb(114, 113, 113)" stroke="rgb(114, 113, 113)" stroke-linecap="square" stroke-linejoin="square" stroke-width="0.209" data-glyph-w="87.3198" data-glyph-h="125.64" data-glyph-ascender="107.92476" data-glyph-descender="-17.71524" id="svg_45"/>
      <path d="m895.18674,245.64l0,-68.85l-26.64,0l0,-14.95l72.25,0l0,14.95l-27.77,0l0,68.85l-17.84,0z" fill="rgb(114, 113, 113)" stroke="rgb(114, 113, 113)" stroke-linecap="square" stroke-linejoin="square" stroke-width="0.209" data-glyph-w="73.37376" data-glyph-h="125.64" data-glyph-ascender="107.92476" data-glyph-descender="-17.71524" id="svg_44"/>
      <path d="m982.76052,161.84l30.02,0l0,14.95l-23.24,0q-9.05,0 -13.19,1.26q-4.15,1.25 -6.91,4.9l0,0q-1.89,2.51 -2.58,5.02q-0.69,2.51 -1.19,8.54l0,0l47.11,0l0,14.96l-47.11,0q1,10.8 6.41,15.01q5.4,4.21 18.34,4.21l0,0l22.36,0l0,14.95l-23.24,0q-9.42,0 -16.58,-1.13l0,0q-11.31,-1.89 -17.97,-9.93l0,0q-9.55,-11.56 -9.55,-31.28l0,0q0,-21.86 13.44,-34.05l0,0q4.65,-4.15 9.87,-5.78q5.21,-1.63 14.01,-1.63l0,0z" fill="rgb(114, 113, 113)" stroke="rgb(114, 113, 113)" stroke-linecap="square" stroke-linejoin="square" stroke-width="0.209" data-glyph-w="76.89168" data-glyph-h="125.64" data-glyph-ascender="107.92476" data-glyph-descender="-17.71524" id="svg_43"/>
     </g>
    </svg>
   </g>
  </g>
 </g>
</svg>